<?xml version="1.0" encoding="UTF-8"?>
<!DOCTYPE svg PUBLIC "-//W3C//DTD SVG 1.0//EN" "http://www.w3.org/TR/2001/REC-SVG-20010904/DTD/svg10.dtd">
<!-- Creator: CorelDRAW X7 -->
<svg xmlns="http://www.w3.org/2000/svg" xml:space="preserve" width="1000px" height="219px" version="1.0" style="shape-rendering:geometricPrecision; text-rendering:geometricPrecision; image-rendering:optimizeQuality; fill-rule:evenodd; clip-rule:evenodd"
viewBox="0 0 12100 2648"
 xmlns:xlink="http://www.w3.org/1999/xlink">
 <defs>
  <style type="text/css">
   <![CDATA[
    .fil2 {fill:#141515}
    .fil1 {fill:#48BE7A}
    .fil3 {fill:#48BE7A}
    .fil0 {fill:#2B2A29;fill-rule:nonzero}
   ]]>
  </style>
 </defs>
 <g id="Слой_x0020_1">
  <metadata id="CorelCorpID_0Corel-Layer"/>
  <path class="fil0" d="M4275 1960l252 0 0 -291 132 0 159 291 264 0 -191 -337 17 -10c10,-5 23,-15 39,-29 15,-14 31,-31 46,-51 16,-20 29,-46 40,-78 11,-32 16,-67 16,-104 0,-90 -31,-165 -95,-226 -63,-61 -144,-92 -242,-92l-437 0 0 927zm523 -609c0,27 -9,49 -28,66 -18,18 -42,27 -72,27l-171 0 0 -185 171 0c30,0 54,9 72,26 19,18 28,40 28,66zm820 609l225 0 0 -649 -225 0 0 331c0,36 -10,64 -30,86 -21,23 -46,34 -76,34 -26,0 -48,-9 -66,-28 -17,-19 -26,-43 -26,-72l0 -351 -225 0 0 391c0,81 23,147 69,196 47,50 105,75 176,75 35,0 68,-8 99,-24 30,-15 51,-28 59,-38 9,-10 16,-18 20,-24l0 73zm370 -106c0,34 12,62 36,85 24,23 54,34 90,34 36,0 66,-11 90,-34 24,-23 36,-51 36,-85 0,-34 -12,-62 -36,-85 -24,-22 -54,-34 -90,-34 -36,0 -66,12 -90,34 -24,23 -36,51 -36,85zm919 -119l258 -324 0 549 252 0 0 -927 -225 0 -285 365 -284 -365 -225 0 0 927 251 0 0 -549 258 324zm1191 -172l-172 0 86 -271 86 271zm66 199l66 198 272 0 -351 -927 -278 0 -351 927 271 0 66 -198 305 0zm443 198l251 0 0 -291 133 0 159 291 264 0 -192 -337 18 -10c10,-5 23,-15 38,-29 16,-14 31,-31 47,-51 15,-20 29,-46 40,-78 11,-32 16,-67 16,-104 0,-90 -32,-165 -95,-226 -64,-61 -144,-92 -242,-92l-437 0 0 927zm523 -609c0,27 -9,49 -28,66 -18,18 -43,27 -72,27l-172 0 0 -185 172 0c29,0 54,9 72,26 19,18 28,40 28,66zm780 258l232 351 291 0 -357 -543 330 -384 -291 0 -304 358 0 -358 -252 0 0 927 252 0 0 -238 99 -113zm867 139l0 -158 357 0 0 -199 -357 0 0 -146 463 0 0 -212 -715 0 0 927 728 0 0 -212 -476 0zm556 -715l0 226 257 0 0 701 252 0 0 -701 258 0 0 -226 -767 0z"/>
  <path class="fil1" d="M0 1263l0 -80c1,-2 14,-90 16,-102 6,-29 17,-66 28,-91 28,-61 50,-103 91,-152 75,-91 165,-156 277,-213 206,-105 520,-168 840,-168l27 0c331,0 604,50 862,117 68,18 124,36 187,55 53,16 130,43 177,65 57,26 113,48 168,73 29,13 142,76 160,80l0 67c-25,-6 -117,-52 -152,-66 -49,-19 -110,-47 -159,-61 -23,-6 -60,-19 -82,-28 -27,-10 -55,-17 -83,-26 -55,-16 -116,-35 -173,-49 -124,-28 -234,-51 -370,-73 -115,-19 -278,-38 -408,-38l-136 0c-264,0 -550,56 -720,142 -103,53 -172,97 -243,179 -53,62 -120,185 -120,294l0 47c0,115 65,239 120,306 32,41 65,77 106,110 19,17 111,84 133,88l0 183c-42,-3 -170,-79 -203,-101 -61,-41 -115,-89 -161,-143 -53,-61 -81,-106 -120,-181 -17,-34 -27,-69 -40,-108 -5,-15 -22,-126 -22,-126l0 0z"/>
  <path class="fil2" d="M1187 797l1228 0c21,0 36,18 38,39l127 1259c2,21 -8,35 -29,35l-1479 -6c-21,0 -28,-21 -26,-42l102 -1246c2,-21 17,-39 39,-39z"/>
  <path class="fil2" d="M1808 304c257,0 464,321 464,717 0,38 13,80 -5,111 -34,57 -99,52 -95,-8 34,-472 -190,-734 -367,-734 -179,0 -388,245 -364,737 3,54 -58,56 -91,2 -19,-30 -6,-71 -6,-108 0,-396 208,-717 464,-717z"/>
  <path class="fil1" d="M3620 1742l0 89c0,156 -67,295 -136,390 -78,107 -182,170 -300,239 -94,55 -284,115 -412,138 -157,29 -316,50 -506,50l-94 0c-583,0 -1175,-155 -1556,-341l0 -252c103,50 230,117 349,150 25,8 65,23 92,32 32,12 64,19 97,30 48,18 146,42 199,53 70,13 136,31 209,44 75,14 141,21 219,34 72,11 158,15 234,20 81,5 164,8 251,8l18 0c309,0 604,-44 810,-139 199,-91 385,-260 385,-531l0 -25c0,-127 -43,-225 -83,-317 -18,-41 -51,-93 -76,-127 -16,-22 -29,-38 -45,-59 -15,-18 -38,-38 -50,-54l0 -88c48,29 99,87 140,126 46,45 80,94 118,146 57,77 137,257 137,384l0 0z"/>
  <polygon class="fil2" points="656,794 678,863 753,863 693,905 716,974 656,931 596,974 619,905 558,863 633,863 "/>
  <polygon class="fil2" points="3042,905 3066,973 3147,973 3082,1014 3107,1082 3042,1040 2977,1082 3002,1014 2937,973 3017,973 "/>
  <polygon class="fil2" points="1798,0 1820,67 1895,67 1835,108 1858,174 1798,133 1738,174 1761,108 1701,67 1775,67 "/>
  <polygon class="fil2" points="994,143 1016,207 1088,207 1030,247 1052,312 994,272 936,312 959,247 901,207 972,207 "/>
  <polygon class="fil2" points="2515,249 2540,316 2620,316 2555,358 2580,425 2515,383 2451,425 2476,358 2411,316 2491,316 "/>
  <path class="fil3" d="M3068 1845l29 0c14,0 24,-2 29,-6 5,-4 8,-10 8,-17 0,-4 -2,-8 -4,-12 -3,-3 -6,-6 -10,-8 -5,-1 -13,-2 -25,-2l-27 0 0 45zm-25 85l0 -151 52 0c18,0 30,2 38,4 8,3 15,8 19,15 5,7 7,14 7,22 0,11 -4,21 -11,29 -8,8 -19,12 -32,13 6,3 10,5 13,8 6,6 14,16 22,30l19 30 -30 0 -13 -24c-11,-19 -19,-30 -26,-35 -4,-4 -11,-5 -19,-5l-14 0 0 64 -25 0zm62 -194c-20,0 -39,5 -58,15 -18,10 -33,24 -43,43 -11,19 -16,38 -16,58 0,21 5,40 16,58 10,19 24,33 43,43 18,11 38,16 58,16 20,0 39,-5 58,-16 18,-10 33,-24 43,-43 10,-18 15,-37 15,-58 0,-20 -5,-39 -15,-58 -11,-19 -25,-33 -44,-43 -19,-10 -38,-15 -57,-15l0 0zm0 -23c23,0 46,6 68,18 23,12 40,29 53,51 12,23 18,46 18,70 0,25 -6,48 -18,70 -12,22 -30,39 -52,52 -22,12 -45,18 -69,18 -24,0 -48,-6 -70,-18 -22,-13 -39,-30 -52,-52 -12,-22 -18,-45 -18,-70 0,-24 6,-47 19,-70 12,-22 30,-39 52,-51 22,-12 45,-18 69,-18l0 0z"/>
 </g>
</svg>
