<?xml version="1.0" encoding="UTF-8"?>
<!DOCTYPE svg PUBLIC "-//W3C//DTD SVG 1.0//EN" "http://www.w3.org/TR/2001/REC-SVG-20010904/DTD/svg10.dtd">
<!-- Creator: CorelDRAW X7 -->
<svg xmlns="http://www.w3.org/2000/svg" xml:space="preserve" width="55px" height="40px" version="1.0" style="shape-rendering:geometricPrecision; text-rendering:geometricPrecision; image-rendering:optimizeQuality; fill-rule:evenodd; clip-rule:evenodd"
viewBox="0 0 199 146"
 xmlns:xlink="http://www.w3.org/1999/xlink">
 <defs>
  <style type="text/css">
   <![CDATA[
    .fil1 {fill:#141515}
    .fil0 {fill:#48BE7A}
   ]]>
  </style>
 </defs>
 <g id="Слой_x0020_1">
  <metadata id="CorelCorpID_0Corel-Layer"/>
  <path class="fil0" d="M0 69l0 -4c0,0 1,-5 1,-6 0,-1 1,-3 1,-5 2,-3 3,-5 5,-8 5,-5 10,-9 16,-12 11,-5 28,-9 46,-9l1 0c19,0 34,3 48,7 3,1 7,2 10,3 3,0 7,2 10,3 3,2 6,3 9,4 2,1 8,4 9,5l0 3c-2,0 -7,-3 -9,-3 -2,-1 -6,-3 -8,-4 -2,0 -4,-1 -5,-1 -1,-1 -3,-1 -4,-2 -3,-1 -7,-2 -10,-2 -7,-2 -13,-3 -20,-4 -7,-1 -16,-2 -23,-2l-7 0c-15,0 -30,3 -40,7 -5,3 -9,6 -13,10 -3,4 -7,10 -7,16l0 3c0,6 4,13 7,17 2,2 3,4 6,6 1,1 6,4 7,5l0 10c-2,0 -9,-5 -11,-6 -3,-2 -6,-5 -9,-8 -3,-3 -4,-6 -7,-10 -1,-2 -1,-3 -2,-6 0,0 -1,-7 -1,-7l0 0z"/>
  <path class="fil1" d="M65 44l68 0c1,0 2,1 2,2l7 69c0,1 -1,2 -2,2l-81 0c-1,0 -2,-1 -1,-2l5 -69c0,-1 1,-2 2,-2z"/>
  <path class="fil1" d="M99 17c15,0 26,17 26,39 0,2 1,5 0,6 -2,3 -6,3 -6,0 2,-26 -10,-41 -20,-41 -10,0 -21,14 -20,41 0,3 -3,3 -5,0 -1,-2 0,-4 0,-6 0,-22 11,-39 25,-39z"/>
  <path class="fil0" d="M199 96l0 5c0,8 -4,16 -7,21 -5,6 -10,10 -17,13 -5,3 -15,7 -23,8 -8,1 -17,3 -27,3l-6 0c-32,0 -64,-9 -85,-19l0 -14c6,3 13,6 19,8 1,1 4,2 5,2 2,1 4,1 5,2 3,1 8,2 11,3 4,0 8,1 12,2 4,1 8,1 12,2 4,1 9,1 13,1 4,0 9,0 14,0l1 0c17,0 33,-2 44,-7 11,-5 21,-15 21,-29l0 -2c0,-7 -2,-12 -4,-17 -1,-2 -3,-5 -4,-7 -1,-1 -2,-2 -3,-3 -1,-1 -2,-3 -3,-3l0 -5c3,1 6,5 8,7 3,2 4,5 7,8 3,4 7,14 7,21l0 0z"/>
  <polygon class="fil1" points="36,44 37,47 41,47 38,50 39,54 36,51 33,54 34,50 31,47 35,47 "/>
  <polygon class="fil1" points="167,50 169,54 173,53 169,56 171,59 167,57 164,59 165,56 162,53 166,54 "/>
  <polygon class="fil1" points="99,0 100,4 104,4 101,6 102,10 99,7 96,10 97,6 94,4 98,4 "/>
  <polygon class="fil1" points="55,8 56,11 60,11 57,14 58,17 55,15 52,17 53,14 50,11 53,11 "/>
  <polygon class="fil1" points="138,14 140,17 144,17 141,20 142,23 138,21 135,23 136,20 133,17 137,17 "/>
 </g>
</svg>
