<?xml version="1.0" encoding="UTF-8"?>
<!DOCTYPE svg PUBLIC "-//W3C//DTD SVG 1.0//EN" "http://www.w3.org/TR/2001/REC-SVG-20010904/DTD/svg10.dtd">
<!-- Creator: CorelDRAW X7 -->
<svg xmlns="http://www.w3.org/2000/svg" xml:space="preserve" width="500px" height="366px" version="1.0" style="shape-rendering:geometricPrecision; text-rendering:geometricPrecision; image-rendering:optimizeQuality; fill-rule:evenodd; clip-rule:evenodd"
viewBox="0 0 1810 1324"
 xmlns:xlink="http://www.w3.org/1999/xlink">
 <defs>
  <style type="text/css">
   <![CDATA[
    .fil1 {fill:#141515}
    .fil0 {fill:#48BE7A}
    .fil2 {fill:#48BE7A}
   ]]>
  </style>
 </defs>
 <g id="Слой_x0020_1">
  <metadata id="CorelCorpID_0Corel-Layer"/>
  <path class="fil0" d="M0 631l0 -40c1,0 7,-45 8,-50 3,-15 9,-33 14,-46 14,-31 25,-51 45,-76 38,-45 83,-78 139,-107 103,-52 260,-84 420,-84l14 0c165,0 301,26 430,59 35,9 62,18 94,28 26,8 65,21 89,32 28,13 56,24 84,36 14,7 70,39 80,41l0 33c-13,-3 -59,-26 -76,-33 -25,-9 -56,-24 -80,-31 -11,-3 -30,-9 -41,-13 -13,-6 -27,-9 -42,-13 -27,-9 -57,-18 -86,-25 -62,-14 -117,-26 -185,-37 -58,-9 -139,-19 -204,-19l-68 0c-132,0 -275,28 -360,72 -51,26 -86,48 -121,89 -27,31 -60,92 -60,147l0 24c0,57 32,119 59,153 17,20 33,38 53,55 10,8 56,41 67,44l0 91c-21,-2 -85,-39 -102,-51 -30,-20 -57,-44 -80,-71 -27,-31 -41,-53 -60,-91 -8,-17 -13,-34 -20,-53 -2,-8 -11,-63 -11,-64l0 0z"/>
  <path class="fil1" d="M593 399l614 0c11,0 19,8 20,19l63 629c1,11 -4,18 -15,18l-739 -3c-10,0 -14,-10 -13,-21l51 -623c1,-11 9,-19 19,-19z"/>
  <path class="fil1" d="M904 152c128,0 232,161 232,359 0,19 7,39 -3,55 -16,29 -49,26 -47,-4 17,-236 -95,-367 -183,-367 -90,0 -194,123 -182,368 1,28 -30,28 -46,2 -10,-15 -3,-36 -3,-54 0,-198 104,-359 232,-359z"/>
  <path class="fil0" d="M1810 871l0 44c0,79 -34,148 -68,195 -39,54 -91,86 -150,120 -47,27 -142,57 -206,69 -79,14 -158,25 -253,25l-47 0c-291,0 -588,-78 -778,-170l0 -126c51,25 115,58 174,75 13,3 33,11 46,16 17,5 33,9 49,15 24,8 73,20 100,26 34,7 67,15 104,22 37,7 71,11 110,17 36,6 78,8 117,10 40,3 81,4 125,4l9 0c155,0 302,-22 405,-69 100,-46 192,-131 192,-266l0 -12c0,-64 -21,-113 -41,-159 -9,-20 -25,-46 -38,-64 -8,-11 -14,-18 -23,-29 -7,-9 -19,-19 -24,-27l0 -44c24,15 49,44 69,63 23,22 41,47 60,73 28,39 68,129 68,192l0 0z"/>
  <polygon class="fil1" points="328,397 339,431 376,431 346,453 358,487 328,466 298,487 309,453 279,431 316,431 "/>
  <polygon class="fil1" points="1521,453 1533,486 1573,486 1541,507 1553,541 1521,520 1489,541 1501,507 1469,486 1509,486 "/>
  <polygon class="fil1" points="899,0 910,33 947,33 917,54 929,87 899,67 869,87 880,54 850,33 887,33 "/>
  <polygon class="fil1" points="497,71 508,104 544,104 515,124 526,156 497,136 468,156 479,124 450,104 486,104 "/>
  <polygon class="fil1" points="1258,124 1270,158 1310,158 1278,179 1290,213 1258,192 1225,213 1238,179 1205,158 1245,158 "/>
  <path class="fil2" d="M1534 923l15 0c7,0 11,-2 14,-4 3,-2 4,-4 4,-8 0,-2 -1,-4 -2,-6 -1,-2 -3,-3 -5,-4 -2,-1 -6,-1 -12,-1l-14 0 0 23zm-12 42l0 -75 26 0c8,0 15,0 19,2 4,1 7,4 9,7 2,3 4,7 4,11 0,6 -2,10 -6,14 -4,4 -9,7 -16,7 3,1 5,3 7,4 3,3 6,8 11,15l9 15 -15 0 -7 -12c-5,-9 -9,-15 -12,-18 -3,-1 -6,-2 -10,-2l-7 0 0 32 -12 0zm30 -97c-9,0 -19,2 -28,7 -10,5 -17,13 -22,22 -5,9 -8,19 -8,29 0,10 3,20 8,29 5,9 12,17 21,22 10,5 19,7 29,7 10,0 20,-2 29,-7 10,-5 17,-13 22,-22 5,-9 8,-19 8,-29 0,-10 -3,-20 -8,-29 -5,-9 -13,-17 -22,-22 -9,-5 -19,-7 -29,-7l0 0zm0 -12c12,0 24,3 35,9 11,6 20,15 26,26 6,11 9,23 9,35 0,12 -3,24 -9,35 -6,11 -15,20 -26,26 -11,6 -23,9 -35,9 -12,0 -23,-3 -34,-9 -11,-6 -20,-15 -26,-26 -6,-11 -10,-23 -10,-35 0,-12 4,-24 10,-35 6,-11 15,-20 26,-26 11,-6 23,-9 34,-9l0 0z"/>
 </g>
</svg>
